<svg width="100" height="100" viewBox="0 0 100 100" fill="none" xmlns="http://www.w3.org/2000/svg">
<path fill-rule="evenodd" clip-rule="evenodd" d="M8.87095 66.9879C8.96799 67.3141 9.02056 67.6592 9.02056 68.0164C9.02864 69.2665 8.52319 69.9242 8.34932 70.1719C7.47996 71.4048 6.35586 71.7651 5.27219 71.7651C4.78293 71.7651 2.66818 71.7916 1.75029 69.3306C1.70986 69.2316 1.55216 68.6985 1.39041 67.7875C0.6181 63.4303 -1.77974 45.3526 2.37701 34.8959C4.65756 29.1587 8.68898 25.4412 14.9767 25.4412C19.9745 25.4412 23.6015 28.5844 25.8659 34.2498C28.3567 40.4756 29.2382 50.1908 30.0348 59.9188C30.7667 68.8284 31.4217 77.7508 33.7023 83.4531C34.6202 85.7537 35.5906 87.5666 37.6204 87.5666C40.269 87.5666 41.4375 85.5958 42.1735 82.8972C43.9486 76.3552 43.0064 66.1325 42.1735 55.9103C41.2637 44.7293 40.463 33.5488 42.408 26.3928C44.1548 19.9526 47.8829 16.2226 54.1989 16.2226C59.2533 16.2226 62.7388 19.0933 64.9547 24.1202C67.393 29.6477 68.1734 38.2679 68.8567 46.9045C69.3702 53.4445 69.8514 59.9894 71.2909 64.8945C71.764 66.5113 72.3301 67.9258 73.0984 69.0252C73.8141 70.0561 74.732 70.7326 76.034 70.7326C79.4305 70.7326 80.0856 67.6752 80.4738 63.8106C81.0763 57.829 80.1665 49.8545 79.5236 41.8784C78.8281 33.2213 78.4601 24.5659 80.126 18.0728C81.1127 14.2094 82.815 11.0358 85.3341 8.78204C87.9503 6.44012 91.4722 5 96.2516 5C98.3219 5 100 6.66536 100 8.7167C100 10.768 98.3219 12.4334 96.2516 12.4334C93.7891 12.4334 91.9008 13.0001 90.5139 14.1653C88.1727 16.1301 87.2386 19.458 86.7574 23.3651C85.7668 31.4385 87.1294 41.8179 87.7966 51.0453C88.3991 59.334 88.3425 66.7815 86.3046 71.4232C84.4405 75.6658 81.238 78.166 76.034 78.166C70.9796 78.166 67.4941 75.2954 65.2782 70.2685C62.84 64.7409 62.0595 56.1208 61.3802 47.4841C60.8627 40.9441 60.3815 34.3993 58.942 29.4942C58.4689 27.8774 57.9028 26.4629 57.1345 25.3635C56.4188 24.3326 55.5009 23.656 54.1989 23.656C51.5504 23.656 50.3818 25.6268 49.6459 28.3255C47.8708 34.8675 48.8129 45.0901 49.6459 55.3123C50.5597 66.4933 51.3563 77.6738 49.4114 84.8299C47.6646 91.2701 43.9364 95 37.6204 95C32.6226 95 28.9956 91.8568 26.7312 86.1914C24.2404 79.9657 23.363 70.2505 22.5623 60.5224C21.8305 51.6128 21.1754 42.6905 18.8948 36.9881C17.9769 34.6875 17.0065 32.8746 14.9767 32.8746C10.6582 32.8746 9.14588 36.9621 8.23608 41.5606C6.39224 50.8709 8.1876 63.173 8.77795 66.4977C8.8103 66.6841 8.84669 66.8712 8.87095 66.9879ZM2.07375 66.0997C1.86753 66.4043 1.56023 66.9654 1.52788 67.8648C1.55619 67.2203 1.75027 66.6183 2.07375 66.0997ZM4.49177 64.4011C3.79224 64.5293 3.10488 64.858 2.51048 65.5221C3.02805 64.9646 3.71541 64.5638 4.49177 64.4011Z" fill="#E42535"/>
</svg>
